<?xml version="1.0" standalone="no"?><!DOCTYPE svg PUBLIC "-//W3C//DTD SVG 1.1//EN" "http://www.w3.org/Graphics/SVG/1.1/DTD/svg11.dtd"><svg t="1493459190970" class="icon" style="" viewBox="0 0 1024 1024" version="1.1" xmlns="http://www.w3.org/2000/svg" p-id="1436" xmlns:xlink="http://www.w3.org/1999/xlink" width="200" height="200"><defs><style type="text/css"></style></defs><path d="M954.734 255.83c-8.853-23.182-42.682-61.082-58.685-80.058-23.182-27.459-102.812-88.16-102.812-88.16l-122.937-30.617v-14.002c0-23.926-19.471-43.503-43.503-43.503h-480.241c-23.887 0-43.388 19.537-43.388 43.503v876.147h-54.933v122.66h676.934v-79.229c32.305 9.247 64.884 17.328 81.223 29.378 27.477 20.189 105.921 15.595 136.197 0 47.367-24.337 31.041-139.834 43.503-191.59l-31.337-544.556zM605.149 380.117c0 23.986-19.471 43.503-43.503 43.503h-349.85c-23.986 0-43.515-19.471-43.515-43.503v-212.006c0-23.926 19.515-43.388 43.515-43.388h349.85c23.986 0 43.503 19.471 43.503 43.388v212.006zM670.306 919.105h-34.835v-387.851h34.835v387.851zM911.382 802.243c-9.073 14.665-3.826 103.474-97.744 109.247-13.722 0.804-41.508-43.056-45.955-58.742-29.495-104.199-30.323-470.718-42.564-485.371-19.309-23.075-54.865-107.291-54.865-107.291v-141.741c0 0 78.972 27.91 103.755 44.123 40.126 26.194 96.386 75.629 107.291 114.994 35.134 126.553 30.092 524.853 30.092 524.853z" p-id="1437" fill="#d81e06"></path></svg>